<?xml version="1.0" encoding="UTF-8" standalone="no"?>
<!-- Created with Inkscape (http://www.inkscape.org/) -->

<svg
   xmlns:dc="http://purl.org/dc/elements/1.1/"
   xmlns:cc="http://creativecommons.org/ns#"
   xmlns:rdf="http://www.w3.org/1999/02/22-rdf-syntax-ns#"
   xmlns:svg="http://www.w3.org/2000/svg"
   xmlns="http://www.w3.org/2000/svg"
   xmlns:sodipodi="http://sodipodi.sourceforge.net/DTD/sodipodi-0.dtd"
   xmlns:inkscape="http://www.inkscape.org/namespaces/inkscape"
   version="1.1"
   id="svg4485"
   width="853.33331"
   height="330.66666"
   viewBox="0 0 853.33331 330.66666"
   sodipodi:docname="simpsonslogo.svg"
   inkscape:version="0.92.1 r15371">
  <metadata
     id="metadata4491">
    <rdf:RDF>
      <cc:Work
         rdf:about="">
        <dc:format>image/svg+xml</dc:format>
        <dc:type
           rdf:resource="http://purl.org/dc/dcmitype/StillImage" />
        <dc:title></dc:title>
      </cc:Work>
    </rdf:RDF>
  </metadata>
  <defs
     id="defs4489" />
  <sodipodi:namedview
     pagecolor="#ffffff"
     bordercolor="#666666"
     borderopacity="1"
     objecttolerance="10"
     gridtolerance="10"
     guidetolerance="10"
     inkscape:pageopacity="0"
     inkscape:pageshadow="2"
     inkscape:window-width="1366"
     inkscape:window-height="706"
     id="namedview4487"
     showgrid="false"
     inkscape:zoom="1.0582032"
     inkscape:cx="426.66666"
     inkscape:cy="165.33333"
     inkscape:window-x="-8"
     inkscape:window-y="-8"
     inkscape:window-maximized="1"
     inkscape:current-layer="svg4485" />
  <g
     id="g5236"
     transform="translate(-55.75489,49.139903)">
    <g
       id="g5221">
      <path
         style="fill:#ffff00;fill-opacity:1;fill-rule:nonzero;stroke:none;stroke-width:10.41492081;stroke-miterlimit:4;stroke-dasharray:none;stroke-opacity:1"
         d="m 243.33789,-6.1796875 c -26.88908,-0.06032 -52.12866,11.0281001 -76.13281,21.9921875 -24.02193,11.64295 -48.45419,29.069939 -56.56446,55.789062 -4.20282,16.725518 -2.46296,36.236248 9.6013,49.444808 13.79085,15.82937 29.17674,30.56134 47.57896,40.94146 28.01985,18.54199 59.6415,31.3136 85.93107,52.37936 2.03614,2.3177 5.97966,4.4648 6.54297,7.53125 -11.74155,7.85614 -26.85855,6.99606 -40.4012,8.04792 -24.95187,0.0824 -50.79085,2.24066 -74.91263,-5.88444 -7.45804,-2.36705 -17.54201,-2.41655 -21.85804,5.37167 -5.3065,8.29581 1.34995,18.7131 9.79147,21.51618 19.62397,8.27566 40.96761,11.87869 62.02884,14.14984 16.1048,-0.10681 32.50331,0.41827 48.34961,-2.81055 15.20207,-4.56167 30.94817,-13.16785 38.35351,-27.83008 3.88578,-10.13564 3.03776,-23.23482 -6.17773,-30.29882 -18.64777,-15.48776 -40.87663,-25.9241 -61.25195,-38.83008 -23.565,-14.61509 -48.6347,-28.46417 -66.91407,-49.78125 -6.48879,-7.21466 -9.42871,-16.872291 -8.75585,-26.398439 -0.46914,-10.315844 1.79287,-21.432718 10.18359,-28.273438 14.5101,-11.825185 32.66698,-18.850174 50.19385,-25.479028 23.29245,-8.032863 49.14871,-10.660031 73.14404,-4.325659 10.25133,2.720158 8.18233,15.638771 15.95117,20.720703 6.51797,2.901719 12.57348,-4.15936 12.37695,-10.40625 2.09347,-18.763296 -10.98179,-36.4446765 -28.16015,-42.9375002 -9.09445,-3.9681946 -19.08862,-4.7799753 -28.89844,-4.6289063 z"
         id="path5166"
         inkscape:connector-curvature="0" />
      <path
         style="fill:#ffff00;fill-opacity:1;fill-rule:nonzero;stroke:none;stroke-width:10.41492081;stroke-miterlimit:4;stroke-dasharray:none;stroke-opacity:1"
         d="m 317.04883,106.53906 c -7.14424,0.23572 -10.87374,7.69629 -10.70313,14.09375 -1.86696,19.60198 0.0171,39.49165 -3.27148,58.91602 -4.06091,11.08088 -3.40322,23.3744 -1.77149,34.85937 1.28742,7.03554 8.0899,13.6065 15.59571,10.88282 8.94471,-1.96296 13.89025,-11.27503 13.02719,-19.96057 -0.4061,-27.05695 3.96076,-54.22399 -0.19516,-81.22107 -0.87217,-7.19111 -3.92993,-17.24848 -12.68164,-17.57032 z"
         id="path5168"
         inkscape:connector-curvature="0" />
      <path
         style="fill:#ffff00;fill-opacity:1;fill-rule:nonzero;stroke:none;stroke-width:10.41492081;stroke-miterlimit:4;stroke-dasharray:none;stroke-opacity:1"
         d="m 403.15625,-25.916016 c -8.30199,0.205298 -12.26279,8.831701 -13.80273,15.833985 -0.52911,3.9021625 -3.26897,6.9920983 -7.40821,6.4999998 -10.80986,0.9877002 -21.70962,-4.0535434 -32.36719,-1.5429688 -7.94332,3.9039257 -7.06405,17.36365 1.31641,20.416016 10.8333,5.844428 24.08794,3.006311 34.99805,8.36914 1.4824,14.405576 -0.65692,29.194879 1.51758,43.558594 3.82982,9.409269 19.49135,5.225976 20.08203,-4.296875 2.10561,-13.656712 -0.22965,-28.159471 1.82812,-41.419922 11.82474,-3.947903 27.6312,-4.549823 34.55664,-16.6289061 4.49753,-7.3047678 -4.07852,-17.0971919 -12.01953,-14.9179689 -6.23469,0.2429896 -12.47413,3.3278607 -18.39258,3.5332032 -0.25308,-5.7817442 2.72899,-13.5760702 -3.60742,-17.2773432 -1.9118,-1.440562 -4.30587,-2.215053 -6.70117,-2.126954 z"
         id="path5170"
         inkscape:connector-curvature="0" />
      <path
         style="fill:#ffff00;fill-opacity:1;fill-rule:nonzero;stroke:none;stroke-width:10.41492081;stroke-miterlimit:4;stroke-dasharray:none;stroke-opacity:1"
         d="m 387.05859,109.5957 c -8.87904,0.91938 -18.94563,5.40257 -21.04404,15.00099 -4.01967,16.52637 -3.35863,34.01232 -8.28994,50.32714 -1.78057,9.64509 -6.8363,21.82006 0.67578,30.32422 4.18095,5.9706 14.51405,9.0643 19.11328,1.90625 5.3649,-9.55061 3.41824,-21.35952 4.96171,-31.77899 1.08549,-9.3909 1.35388,-19.31446 5.42501,-28.07258 6.15676,10.84949 7.48738,24.21805 15.5625,33.94336 3.96854,5.11961 11.87492,5.86486 16.30664,0.91602 6.52884,-5.82518 11.07584,-13.57743 16.48438,-20.24609 -0.13741,16.75536 -1.26932,33.52414 -1.95899,50.29882 2.96591,3.42901 8.23509,9.6366 13.10547,5.40235 6.53528,-4.61573 9.73284,-12.52396 9.26346,-20.38581 1.32817,-22.96039 -2.8546,-45.72271 -2.74002,-68.57904 -0.27479,-8.81019 -9.24508,-15.70969 -17.86133,-13.46093 -8.50664,3.20222 -11.50474,13.24973 -14.97461,20.80468 -2.1377,4.5637 -3.7298,10.42061 -6.55664,14.0625 -8.26804,-12.74995 -11.35889,-29.58234 -23.72461,-39.35937 -1.12758,-0.6749 -2.41505,-1.1656 -3.74805,-1.10352 z"
         id="path5172"
         inkscape:connector-curvature="0" />
      <path
         style="fill:#ffff00;fill-opacity:1;fill-rule:nonzero;stroke:none;stroke-width:10.41492081;stroke-miterlimit:4;stroke-dasharray:none;stroke-opacity:1"
         d="m 491.9043,-39.066406 c -6.44919,0.278572 -5.27677,8.900209 -6.09766,13.273437 -1.43607,12.998128 -0.8769,26.25382883 -3.2207,39.113281 -3.93018,0.723467 -7.92601,1.002597 -11.89649,1.417969 0.44511,-14.35291086 0.89616,-28.70564 1.33985,-43.058593 -4.51031,-3.828001 -13.79393,-7.570735 -17.55274,-0.90625 -4.47491,13.154866 -3.24084,27.5851562 -6.16211,41.029296 -4.63343,2.931701 -10.99702,6.627525 -10.12695,13.158204 0.20761,6.355345 6.63849,9.906002 8.25,15.484374 1.19887,10.239393 -0.67034,23.51963 9.10938,30.347657 3.70997,3.732223 12.56478,4.40942 13.35156,-2.22461 1.23688,-9.647971 0.61768,-19.43944 1.0625,-29.140625 3.87948,-0.865623 7.75799,-0.798333 11.77539,-0.802734 1.02554,8.504649 -0.4652,17.827325 2.68359,25.904297 4.54574,4.43012 13.57763,8.12303 18.13867,1.699219 4.28408,-11.348222 0.91946,-24.411859 5.60743,-35.53711 1.90875,-3.553322 6.47825,-7.956248 2.43554,-11.763672 -2.70675,-3.989352 -6.28254,-7.614651 -4.82226,-12.9003902 0,-12.3886719 0,-24.7773438 0,-37.1660158 -4.01224,-3.363199 -7.94248,-8.644168 -13.875,-7.927734 z"
         id="path5174"
         inkscape:connector-curvature="0" />
      <path
         style="fill:#ffff00;fill-opacity:1;fill-rule:nonzero;stroke:none;stroke-width:10.41492081;stroke-miterlimit:4;stroke-dasharray:none;stroke-opacity:1"
         d="m 563.11719,-38.652344 c -17.22557,1.247882 -29.75714,16.269759 -36.84766,30.808594 -8.82218,18.031834 -10.34618,40.846238 1.16602,58.089844 4.746,7.722128 12.2957,15.709648 22.24575,14.451904 14.19002,0.591562 28.90422,-0.4822 41.50229,-7.71167 7.01873,-4.046629 15.0055,-8.601061 18.6543,-16.130859 1.38078,-4.568886 -0.40371,-12.130376 -6.57617,-10.791016 -11.93237,2.420305 -21.17498,12.183609 -33.08399,14.285156 -7.68297,-0.388682 -16.69323,1.867839 -23.24804,-3.144531 -3.21693,-2.623456 -5.49767,-10.497188 0.94195,-9.628056 13.97822,-1.924964 27.65755,-9.223952 36.29047,-20.461788 4.71308,-9.1357492 4.04095,-20.0993742 3.01562,-30.044922 -1.76422,-11.197977 -12.67692,-20.310129 -24.06054,-19.722656 z m 2.35937,21.300782 c 5.48626,0.869861 8.06761,7.6284083 4.44336,11.9746089 -4.84705,8.2999236 -12.88063,18.1815911 -23.38476,16.9355471 -0.72705,-11.58171084 9.10393,-20.1978188 16.51953,-27.802735 0.69236,-0.573172 1.43686,-1.293457 2.42187,-1.107421 z"
         id="path5176"
         inkscape:connector-curvature="0" />
      <path
         style="fill:#ffff00;fill-opacity:1;fill-rule:nonzero;stroke:none;stroke-width:10.41492081;stroke-miterlimit:4;stroke-dasharray:none;stroke-opacity:1"
         d="m 519.86523,92.289062 c -14.44314,0.509749 -24.17471,14.407328 -27.23046,27.367188 -3.32782,10.4687 -2.58606,22.07343 -7.03907,32.10547 -4.31179,2.04546 -11.216,-0.31662 -14.01758,4.99609 -3.55557,6.85243 -0.57808,17.04336 7.6211,18.69727 6.15159,1.35204 4.23311,9.55992 5.86133,14.18164 0.47323,7.38581 8.73107,13.65019 15.69531,9.83594 8.83984,-3.8644 7.70628,-15.41142 8.67611,-23.32127 -0.70575,-6.59082 9.01308,-1.99319 13.15787,-3.37795 9.37806,-0.15208 20.22235,0.81025 27.37891,-6.60547 6.99897,-5.7224 10.89766,-14.67055 9.64648,-23.71094 -0.4391,-16.07991 -8.78274,-31.48917 -20.41015,-42.31836 -5.32986,-4.607389 -12.10354,-8.233237 -19.33985,-7.849608 z m 4.38868,23.859378 c 8.04566,2.91473 10.58152,12.24076 14.50781,19.11133 1.01373,2.8948 4.81231,7.87436 -0.002,9.4082 -8.29963,3.59502 -18.1827,4.36295 -26.9375,2.86328 -0.45541,-10.11908 1.37298,-20.76507 7.46093,-29.13086 1.24853,-1.37866 3.0293,-2.53708 4.97071,-2.25195 z"
         id="path5178"
         inkscape:connector-curvature="0" />
      <path
         style="fill:#ffff00;fill-opacity:1;fill-rule:nonzero;stroke:none;stroke-width:10.41492081;stroke-miterlimit:4;stroke-dasharray:none;stroke-opacity:1"
         d="m 614.81055,83.947266 c -18.98777,1.477912 -35.64775,13.939366 -46.82032,28.740234 -5.2946,8.13121 -5.4632,18.97617 -2.72461,28.01562 5.4243,13.30359 17.40462,22.47026 24.00196,34.98829 1.74753,5.09971 -5.68871,5.43092 -8.83789,6.73632 -7.60085,2.69244 -16.57564,1.12024 -23.5625,5.34571 -4.83789,6.19815 -5.27736,17.74568 3.02343,21.37109 13.74053,6.44145 29.50222,0.97017 42.6836,-4.32422 8.83923,-3.74633 15.86843,-12.44312 15.0664,-22.41406 1.21981,-9.52127 -3.8799,-18.07075 -10.08789,-24.80273 -5.83299,-8.07408 -15.1672,-15.02137 -16.71484,-25.39844 0.0642,-11.91386 11.41181,-20.28137 22.27539,-21.76758 6.07041,-2.23558 15.13472,-1.19873 18.64453,-7.73438 2.21482,-6.324364 -0.24264,-13.870719 -6.59179,-16.683589 -3.16897,-1.656639 -6.81613,-2.171014 -10.35547,-2.072265 z"
         id="path5180"
         inkscape:connector-curvature="0" />
      <path
         style="fill:#ffff00;fill-opacity:1;fill-rule:nonzero;stroke:none;stroke-width:10.41492081;stroke-miterlimit:4;stroke-dasharray:none;stroke-opacity:1"
         d="m 657.5918,129.2207 c -9.75498,1.38154 -14.48426,12.19676 -15.86914,20.89453 -3.6697,10.80962 -14.67732,19.78943 -12.07032,32.22071 1.88365,11.20442 5.51313,25.16109 17.42774,29.41797 11.26513,1.04505 22.95671,0.88522 33.98828,-1.76368 10.91113,-5.4847 18.47329,-17.72338 18.59961,-29.92382 -1.65389,-11.10709 -3.92901,-22.66801 -9.64844,-32.45703 -7.32275,-8.50623 -19.08431,-11.10391 -28.05469,-17.43946 -1.36109,-0.63966 -2.86343,-1.01108 -4.37304,-0.94922 z m 9.27929,31.32227 c 7.94568,-0.93871 13.41122,8.87325 8.91993,15.42969 -1.95133,5.44453 -3.57997,13.58147 -11.26368,12.96093 -4.40415,1.10751 -11.21579,0.11234 -10.12695,-5.99023 0.66544,-7.36614 1.40957,-15.80032 6.02149,-21.73633 2.02371,-0.81813 4.31273,-0.57682 6.44921,-0.66406 z"
         id="path5182"
         inkscape:connector-curvature="0" />
      <path
         style="fill:#ffff00;fill-opacity:1;fill-rule:nonzero;stroke:none;stroke-width:10.41492081;stroke-miterlimit:4;stroke-dasharray:none;stroke-opacity:1"
         d="m 750.21484,97.980469 c -4.26586,-0.517563 -8.16439,2.914291 -7.3125,7.306641 1.42346,19.60461 15.42077,37.83855 9.82618,57.88281 -0.49926,3.11286 -3.51425,4.41117 -5.36133,1.50977 -7.09704,-7.52312 -12.5124,-18.44269 -23.78711,-20.3086 -6.81168,-2.71617 -14.19892,2.98728 -14.11133,10.11524 -1.10928,16.28752 -2.14208,32.50833 -3.39063,48.79297 0.69198,6.33504 10.35014,8.70147 13.66016,2.92382 4.69778,-6.27524 6.74178,-14.74947 12.83008,-19.7871 7.82585,2.67855 14.92162,12.9321 24.11523,8.90234 12.27558,-5.73315 20.32761,-19.5752 18.36385,-33.13236 -0.89628,-19.48016 0.71366,-41.23121 -11.19978,-57.95553 -3.19661,-4.401353 -8.20693,-6.686362 -13.63282,-6.250001 z"
         id="path5184"
         inkscape:connector-curvature="0" />
      <path
         style="fill:#ffff00;fill-opacity:1;fill-rule:nonzero;stroke:none;stroke-width:10.41492081;stroke-miterlimit:4;stroke-dasharray:none;stroke-opacity:1"
         d="m 844.30078,72.525391 c -15.61253,-0.898973 -28.94926,9.647308 -38.8457,20.609375 -6.48193,7.662424 -11.96592,16.669154 -14.98047,26.089844 -0.25127,13.81587 -1.00732,30.02604 9.89062,40.44531 8.29212,8.86543 20.11216,14.3025 26.93165,24.4707 0.54439,7.836 -8.5687,11.39368 -14.39258,14.39258 -9.52092,5.06361 -21.75582,6.18315 -30.11524,13.64844 -3.86577,4.46484 -4.96259,13.80823 2.11524,15.68164 10.34838,1.71067 21.0399,-1.15325 30.84179,-4.42383 13.56804,-5.55712 25.22635,-15.59831 33.73633,-27.43554 7.18872,-11.40137 1.61499,-26.62176 -8.18103,-34.60439 -8.21415,-8.30511 -18.24284,-15.00898 -25.39514,-24.24913 -1.52891,-12.38249 5.59184,-24.75054 14.84766,-32.60937 5.85665,-4.918923 14.27628,-7.426751 21.625,-6.13477 1.92058,5.59382 1.28414,15.30982 8.76562,16.6875 5.20264,1.23565 9.40328,-3.39653 9.2168,-8.4043 0.11375,-9.223955 2.35232,-20.659203 -4.76953,-27.978512 -5.68246,-5.345616 -13.79921,-6.47665 -21.29102,-6.185547 z"
         id="path5186"
         inkscape:connector-curvature="0" />
    </g>
    <path
       inkscape:connector-curvature="0"
       id="path5144"
       d="m 492.13058,-43.563731 c -0.81257,-0.02968 -1.58451,0.04191 -2.29687,0.220703 -1.46014,0.366471 -5.49066,3.475932 -8.95703,6.910156 -6.05174,5.995634 -6.37351,6.165643 -8.08594,4.273438 -2.74531,-3.033541 -10.48787,-5.604128 -14.57227,-4.837891 -4.2508,0.797455 -14.13896,9.474087 -15.71875,13.792969 -0.60409,1.651524 -1.09765,4.464853 -1.09765,6.251953 0,3.084443 -0.17598,3.217456 -3.4668,2.617188 -1.90667,-0.347789 -6.82714,0.08005 -10.93359,0.949218 -9.57398,2.026419 -9.06641,2.121469 -9.06641,-1.726562 0,-12.47105 -13.92893,-19.265284 -24.10742,-11.759766 -6.36686,4.694854 -10.76318,9.768838 -13.15039,15.173828 l -2.16797,4.9082031 -12.02149,-2.042968 c -6.6112,-1.123481 -13.59312,-1.7490981 -15.51562,-1.3886721 -2.22896,0.4178821 -5.86984,2.8885581 -10.05078,6.8183591 -6.41051,6.025432 -6.56799,6.306457 -7.02149,12.576172 -0.63963,8.8426069 1.41069,12.5595649 8.78907,15.9374999 4.99704,2.287718 11.27701,3.490159 27.92968,5.351562 5.57097,0.622713 5.55096,0.525131 4.88477,23.601558 -0.58254,20.17846 0.11769,23.09187 6.48242,26.97266 7.15391,4.36199 15.58402,1.38588 24.91211,-8.79883 5.92205,-6.46589 7.2753,-12.90398 6.40039,-30.427731 l -0.65039,-13.050781 3.23633,-1.673829 c 1.87426,-0.969221 5.12079,-1.537828 7.71094,-1.349609 l 4.47265,0.324219 0.65625,5.373047 c 0.94834,7.769141 1.71842,9.577754 4.77735,11.214843 4.24592,2.272349 5.05239,4.696373 3.58984,10.792971 -2.66488,11.10845 1.42419,21.89464 10.47852,27.63672 2.75541,1.74743 6.39523,3.11718 8.28125,3.11718 3.47232,0 9.5428,-3.78271 14.19726,-8.8457 l 2.51563,-2.73633 4.27734,3.09961 c 9.01029,6.52702 16.50458,5.61382 25.4707,-3.10547 l 6.28907,-6.11718 v -12.07813 c 0,-10.651192 0.19086,-11.921058 1.61132,-10.742186 0.88592,0.735251 2.33728,3.839391 3.22657,6.898437 3.28575,11.302599 10.73247,19.515369 21.38086,23.582029 3.85506,1.47226 7.02398,1.69418 17.25195,1.21094 14.29967,-0.67563 24.32601,-3.15892 35.52539,-8.79883 8.42772,-4.24413 21.44876,-15.909997 24.55664,-22.001951 3.89827,-7.641247 2.01739,-15.327999 -4.40039,-17.986328 -4.20286,-1.740885 -10.40133,-0.145355 -19.2832,4.960937 -3.74135,2.150949 -8.8284,5.07215 -11.30469,6.492188 -5.21391,2.989943 -14.41432,4.223585 -18.79688,2.521484 l -3.0332,-1.177734 9.4336,-6.195313 c 11.63085,-7.639463 21.91168,-17.028027 24.4082,-22.289062 1.33119,-2.8052789 2.0313,-7.5931619 2.39258,-16.3652349 0.60205,-14.6181271 -0.87647,-20.5663271 -6.85157,-27.5468751 -5.97467,-6.980069 -11.05678,-9.165051 -21.18359,-9.111328 -12.28693,0.06518 -18.3822,3.231369 -31.59766,16.414063 -9.10549,9.082925 -10.85284,11.467585 -15.46679,21.1054681 -2.86086,5.975916 -5.58336,10.882117 -6.04883,10.904297 -0.46548,0.022176 -0.76843,-8.11705 -0.67383,-18.0878901 0.18772,-19.790631 0.17193,-19.855721 -6.50977,-26.38086 -3.31861,-3.240853 -7.58629,-5.252244 -11.10742,-5.380859 z m 0.73242,6.15625 c 3.53315,0 4.91757,0.670609 7.87891,3.810547 l 3.59375,3.808593 V -8.6477149 12.492909 l 3.56836,5.181641 3.57031,5.179688 -3.57031,5.189453 c -2.36283,3.434944 -3.59523,6.501915 -3.64453,9.070312 -0.0409,2.134169 -0.42876,9.338494 -0.86328,16.011714 -0.65603,10.07481 -1.13114,12.38356 -2.79688,13.60157 -4.57956,3.34866 -14.72173,-0.0055 -16.05273,-5.3086 -0.35546,-1.41627 -0.72981,-7.55283 -0.83008,-13.634762 l -0.18164,-11.05664 -6.93359,0.382812 c -3.81334,0.210554 -7.30069,0.603228 -7.75,0.873047 -0.4493,0.269817 -0.77315,7.517648 -0.71875,16.105473 0.0873,13.77039 -0.12388,15.77599 -1.78711,16.99218 -4.40954,3.22433 -11.5924,-0.34317 -15.22266,-7.56054 -2.14228,-4.25911 -2.54492,-6.64514 -2.54492,-15.06641 0,-9.695514 -0.0984,-10.099385 -3.15039,-13 -8.41786,-8.000326 -7.86871,-16.792334 1.28515,-20.583984 3.85169,-1.595425 3.66407,-0.807918 5.82813,-24.5429689 1.5294,-16.7741471 1.93873,-18.8646271 4.04102,-20.6210941 2.6426,-2.207935 6.98072,-1.813435 11.32226,1.03125 l 2.61524,1.714844 -0.74024,21.7363281 -0.74023,21.7382809 4.04882,-0.01172 c 2.22639,-0.0065 5.74978,-0.292506 7.83008,-0.636719 l 3.78125,-0.626953 1.35156,-22.5624999 c 1.84245,-30.7834871 1.54415,-29.4960941 6.8125,-29.4960941 z m 70.43555,0.30664 c 5.70121,-0.141813 11.06464,1.566237 15.06445,5.078126 6.94141,6.094644 9.5363,15.900169 7.95313,30.0507811 -1.19495,10.680736 -2.71424,13.5684289 -10.26172,19.4921869 -10.15898,7.973428 -17.87945,11.548609 -26.38672,12.21875 -7.13564,0.562094 -7.48084,0.715571 -7.79687,3.451172 -0.50706,4.389224 2.61539,9.352666 7.04883,11.205078 5.45209,2.27803 19.12036,3.070019 24.30664,1.408203 2.29618,-0.735753 8.07761,-3.709575 12.84765,-6.607421 15.77338,-9.582482 22.79492,-10.151137 22.79492,-1.847657 0,3.717376 -0.70675,4.986046 -5.36914,9.648438 -6.57421,6.574201 -19.36433,12.799541 -31.27929,15.224611 -11.52796,2.34629 -25.59236,2.2168 -31.08594,-0.28516 -8.7111,-3.96734 -17.36522,-17.307655 -19.83984,-30.582029 -2.34137,-12.559575 1.33959,-30.91108885 8.83203,-44.023438 4.4637,-7.811826 13.55207,-17.351794 19.73828,-20.71875 4.36074,-2.373409 8.99932,-3.602591 13.43359,-3.712891 z M 403.15988,-24.6067 c 3.08512,0 4.92929,0.724207 6.92578,2.720703 2.57222,2.572226 2.68025,3.125702 1.97656,10.132813 -0.86502,8.6135181 -1.26062,8.3971741 9.60938,5.2558591 11.06763,-3.198429 16.34869,-3.067024 19.39844,0.478516 7.3406,8.533956 -2.2167,19.5380479 -19.93555,22.9550779 -3.81333,0.735391 -8.49372,1.8074 -10.40039,2.380859 l -3.4668,1.041016 v 20.771484 c 0,22.920239 -0.60935,25.671029 -6.36328,28.646489 -5.89136,3.04655 -10.68626,1.61735 -12.68555,-3.78125 -0.58492,-1.57948 -0.76641,-11.0477 -0.42968,-22.439458 0.5077,-17.176627 0.36303,-19.926034 -1.12891,-21.417968 -1.75013,-1.750136 -12.39995,-4.056696 -18.94531,-4.103516 -9.04377,-0.06468 -19.22299,-3.961721 -21.09766,-8.0761719 -2.15495,-4.729607 -0.99802,-11.204769 2.41016,-13.480468 1.90908,-1.274734 11.19604,-0.928604 20.9082,0.78125 8.56289,1.507522 14.46182,1.317736 18.16797,-0.585938 0.9178,-0.471432 2.22509,-3.692088 2.97852,-7.3398441 1.83722,-8.894969 6.20746,-13.939453 12.07812,-13.939453 z m 162.49609,5.333985 c -1.36939,-10e-7 -3.96838,1.478136 -5.77539,3.285156 -4.83735,4.837343 -12.70216,15.30940215 -13.9375,18.5585941 -1.21851,3.204922 -1.43364,9.4413569 -0.36328,10.5117179 2.69292,2.692918 12.92092,-1.374916 18.6836,-7.4296869 4.01695,-4.220561 9.40429,-13.806161 9.40429,-16.7324221 0,-2.750724 -5.3217,-8.193359 -8.01172,-8.193359 z m -320.66601,8.630859 c -5.85205,-0.126816 -11.69434,0.509811 -20.2832,1.9921871 -22.46472,3.877249 -58.2225,18.209778 -79.30469,31.7871099 -9.07451,5.844155 -25.35372,19.7942 -31.23047,26.763672 -13.22552,15.684694 -19.28102,35.493464 -16.353515,53.492187 1.396609,8.58655 7.814085,21.80686 14.744145,30.37305 6.58005,8.13357 24.1892,23.63201 33.59765,29.57031 4.00038,2.52491 12.27486,7.84511 18.38867,11.82227 6.11381,3.97716 20.62774,12.30707 32.25195,18.51172 25.93037,13.84081 46.98747,27.69223 45.04688,29.63281 -1.8369,1.8369 -14.94043,2.75586 -39.28516,2.75586 -30.64777,0 -41.18565,-0.96659 -52.11523,-4.78516 -15.32525,-5.35433 -21.89241,-4.63749 -31.07422,3.39453 -6.85089,5.993 -8.94336,9.96193 -8.94336,16.96875 0,8.67363 3.52912,14.04564 11.94141,18.18555 15.38335,7.57055 43.80428,14.02444 68.89648,15.64258 28.14169,1.81478 51.57543,-2.06578 67.49805,-11.17578 8.92513,-5.10645 23.04983,-19.47956 26.45703,-26.92188 5.01063,-10.94467 3.36653,-25.18357 -3.92969,-34.03515 -4.36256,-5.29254 -21.45746,-16.4156 -52.6914,-34.28125 -30.8365,-17.63832 -48.6889,-29.35605 -62.88477,-41.27539 -19.15108,-16.07992 -24.54683,-25.33494 -23.85156,-40.916023 0.85456,-19.15082 9.88469,-27.99731 41.40234,-40.556641 23.59368,-9.401749 44.78381,-13.184017 65.27539,-11.652343 8.05271,0.601911 10.12442,1.196127 15.73242,4.513672 5.85388,3.463014 6.45899,4.155638 6.45899,7.392578 0,4.615364 2.38064,10.245874 5.75976,13.625004 2.07668,2.07669 3.76895,2.67773 7.54883,2.67773 4.23444,0 5.52873,-0.59336 9.88672,-4.5332 7.59759,-6.86859 8.60245,-8.32408 10.02149,-14.519534 0.98588,-4.304351 1.02305,-7.387508 0.15234,-12.470704 -3.84951,-22.4732939 -20.79161,-36.9349779 -47.97266,-40.9453119 -4.1141,-0.6070011 -7.62939,-0.9571141 -11.14062,-1.0332031 z m 316.62109,2.0351561 c 3.3656,0 -0.20276,9.12502705 -5.21875,13.345703 -1.73493,1.459848 -4.08826,2.654297 -5.22851,2.654297 -2.02224,0 -2.01698,-0.111233 0.19726,-4.533203 2.60606,-5.204468 8.20413,-11.466797 10.25,-11.466797 z m -315.95898,3.626953 c 28.4423,0.357456 48.73277,13.350851 52.89453,35.9374999 2.28746,12.414521 -1.14946,20.574864 -8.4043,19.958984 -3.70923,-0.314883 -3.88735,-0.538446 -6.54297,-8.15039 -3.60227,-10.325429 -5.59477,-12.18119 -15.74414,-14.667969 -10.7908,-2.643934 -35.06095,-2.69457 -48.34375,-0.101562 -23.85788,4.657427 -59.50004,20.242203 -71.32226,31.187501 -9.27429,8.58635 -11.30525,13.84559 -11.31445,29.29297 -0.007,11.663603 0.16512,12.632193 3.39843,19.205083 8.35082,16.97609 33.59349,36.57232 85.12891,66.08789 28.27348,16.19288 46.14657,27.68199 50.87695,32.70312 7.01392,7.44501 8.38248,20.52984 3.10938,29.7207 -6.82384,11.89374 -22.59776,22.02612 -39.58594,25.42774 -10.13137,2.02865 -31.50259,2.88032 -45.33399,1.80664 -24.59524,-1.90927 -54.17674,-9.16994 -65.39843,-16.05078 -7.2786,-4.46305 -8.48691,-14.99015 -2.35547,-20.51758 4.46344,-4.02374 10.90718,-3.92199 23.73828,0.37695 8.41169,2.81825 12.42265,3.46709 26.94922,4.35743 9.38667,0.57531 26.3823,0.75342 37.76758,0.39648 26.00326,-0.81521 40.40104,-3.56225 46.20898,-8.81836 1.84497,-1.66967 1.82525,-1.84654 -0.49414,-4.37695 -7.95706,-8.681 -26.9418,-21.46235 -49.34961,-33.22657 -22.02154,-11.56139 -32.80403,-18.03023 -60.26758,-36.16015 -9.42802,-6.22386 -31.00823,-28.4223 -34.88476,-35.88281 -5.43042,-10.45104 -7.05776,-17.676653 -6.47266,-28.736333 1.42225,-26.88343 20.89305,-49.722917 57.66016,-67.634768 14.20027,-6.91795 36.03182,-15.3181709 47.21679,-18.1679689 10.99681,-2.801855 21.38447,-4.085949 30.86524,-3.966797 z M 844.03488,67.586657 c -6.79616,0.07242 -13.69641,1.74876 -20.36719,5.02539 -7.71536,3.78972 -24.05747,17.70958 -30.88281,26.30469 -4.82331,6.073973 -12.25786,20.305833 -13.76172,26.343753 -0.95973,3.8533 -1.15966,3.46242 -5.22656,-10.16211 -4.36617,-14.6271 -11.73334,-21.609373 -22.79688,-21.609373 -5.02582,0 -6.20868,0.46774 -10.6914,4.22851 -10.15464,8.519233 -10.70208,14.251543 -3.33203,34.912113 2.2868,6.41065 4.1582,12.54091 4.1582,13.62305 0,1.78218 -0.41357,1.70664 -4.38867,-0.80274 -8.57298,-5.41188 -18.36215,-7.31388 -23.68164,-4.60156 -1.28143,0.65338 -5.04236,3.82997 -8.35742,7.06055 -3.31507,3.2306 -6.49139,5.58614 -7.06055,5.23437 -0.56916,-0.35175 -1.34142,-2.16604 -1.71485,-4.0332 -1.00412,-5.02057 -7.55524,-10.60288 -16.61718,-14.1582 -4.3289,-1.69839 -9.77762,-4.81135 -12.10938,-6.91797 -3.61946,-3.26996 -4.92202,-3.80429 -8.89844,-3.65039 -5.84336,0.22615 -10.08135,2.8281 -17.8164,10.9375 -6.62765,6.94839 -9.22266,11.86686 -9.22266,17.48047 0,2.47028 -1.47523,5.85653 -4.67773,10.73242 l -4.67969,7.125 -2.95508,-5.04102 c -1.62466,-2.77227 -6.46867,-8.99066 -10.76562,-13.82031 -4.29696,-4.82964 -9.02192,-10.56412 -10.5,-12.74219 -3.19189,-4.7035 -3.54871,-10.903 -0.82032,-14.24414 1.90915,-2.33792 11.23889,-5.3816 16.56641,-5.40429 6.65062,-0.0284 19.2953,-8.4921 22.79297,-15.25586 5.07862,-9.820953 -4.51815,-23.035943 -18.07813,-24.894543 -14.30508,-1.96074 -40.30776,12.37909 -55.72656,30.730473 l -5.09179,6.06055 -5.01368,-7.12695 C 542.00069,94.250167 532.77212,88.110037 520.86886,87.998767 c -9.48487,-0.08866 -15.44936,2.99222 -25.32812,13.082033 -10.81199,11.04299 -14.29603,18.84556 -16.82617,37.6875 -1.14538,8.52958 -1.44722,9.29394 -3.92578,9.91602 -1.47709,0.37073 -5.27993,3.12762 -8.44922,6.125 -3.16929,2.99738 -6.11729,5.09517 -6.55078,4.66211 -0.43349,-0.43305 -1.05597,-8.54835 -1.38477,-18.03321 -0.47013,-13.5622 -1.01052,-18.10337 -2.53125,-21.26562 -3.38684,-7.04278 -11.81021,-11.19695 -19.92383,-9.82617 -5.26639,0.88976 -14.57774,9.12306 -20.28515,17.93555 l -4.0293,6.22265 -4.38477,-8.87695 c -7.95937,-16.11826 -13.1774,-20.68659 -22.72851,-19.89453 -10.74392,0.89096 -24.04179,10.37291 -28.41602,20.26172 -2.43056,5.49475 -4.22038,16.91619 -4.27148,27.26562 -0.0206,4.17451 -1.66655,13.14714 -4.40235,24 -5.43039,21.54221 -5.50119,29.17985 -0.33593,35.67188 4.52352,5.68545 11.47829,9.126 17.23828,8.52734 3.49761,-0.36351 5.90522,-1.64502 10.55469,-5.61719 8.18317,-6.9911 10.19963,-11.8218 10.83984,-25.96875 l 0.50195,-11.11914 2.10352,4.18555 c 4.65079,9.25758 12.15995,14.16179 19.56055,12.77344 2.02784,-0.38043 6.30999,-2.82843 9.51562,-5.43946 3.20565,-2.61102 6.08778,-4.74804 6.4043,-4.74804 0.31651,0 0.26336,6.36143 -0.11719,14.13476 -0.77122,15.75322 0.14407,21.20486 4.31836,25.70899 2.13103,2.29941 3.56694,2.82331 7.73437,2.82031 3.15606,-0.002 6.3449,-0.77342 8.31836,-2.00977 4.49736,-2.81756 11.95942,-10.2922 13.72266,-13.74609 2.3149,-4.53447 3.87695,-13.46288 3.87695,-22.16016 0,-6.20866 0.33635,-7.94726 1.53711,-7.94726 0.84537,0 1.8118,0.44284 2.14649,0.98437 0.33468,0.54154 2.04304,1.30035 3.79687,1.68555 3.36161,0.73833 3.61234,1.28074 4.78125,10.31836 1.29235,9.99205 9.0822,16.71783 17.67774,15.26562 3.06987,-0.51865 6.34465,-2.4465 11.31835,-6.66601 7.34239,-6.22899 9.94336,-10.57505 9.94336,-16.61133 v -3.625 l 10.39844,-0.52148 c 13.62891,-0.68248 18.48171,-2.97385 29.45508,-13.91407 4.61333,-4.5994 8.50164,-8.21684 8.64062,-8.03906 0.13899,0.17778 3.68456,4.11957 7.87891,8.75977 4.19435,4.6402 7.62695,8.84085 7.62695,9.33398 0,0.49313 -3.37643,0.89648 -7.50195,0.89648 -8.81864,0 -13.30658,1.64181 -19.07031,6.97461 -5.52885,5.11548 -7.71484,9.95732 -7.71484,17.09766 -10e-6,10.63066 4.58585,14.84944 18.97656,17.45898 6.6244,1.20123 11.05106,0.71617 23.9375,-2.62304 11.07014,-2.86856 18.04501,-6.84569 26.54101,-15.13477 4.38254,-4.2758 8.1015,-7.77344 8.26563,-7.77344 0.16413,0 0.30033,0.83857 0.30078,1.86524 10e-4,2.81889 5.75048,14.28689 8.77344,17.49805 5.25038,5.57727 8.30691,6.38327 24.6582,6.51171 18.33281,0.14401 23.13628,-1.17368 32.19141,-8.83007 3.45584,-2.92203 6.56653,-5.3125 6.91406,-5.3125 0.34754,0 1.23174,1.65385 1.96289,3.67578 2.77553,7.67559 13.24005,10.43329 20.60352,5.42969 3.3712,-2.29079 11.63063,-13.04623 12.86718,-16.75586 0.28183,-0.84552 2.14536,-0.0693 5.34766,2.23046 10.2879,7.3882 18.22999,5.48005 32.01758,-7.69531 10.23745,-9.78287 12.57098,-14.70306 13.25976,-27.95117 0.27452,-5.28 0.7166,-10.27707 0.98242,-11.10352 0.28588,-0.88887 2.69999,1.87378 5.91016,6.76368 4.26438,6.49573 7.28473,9.62696 14.10156,14.61132 14.33477,10.48133 15.60938,11.60121 15.60938,13.73633 0,2.57133 -1.07663,3.12553 -15.43555,7.9668 -14.97561,5.04919 -17.08398,6.1483 -23.31641,12.14062 -6.4663,6.21722 -8.18164,9.46413 -8.18164,15.48243 0,5.6547 3.73384,10.91469 8.30469,11.69726 9.00679,1.54205 26.70067,-1.40172 37.02735,-6.16015 12.42891,-5.72711 35.30831,-25.62444 40.12695,-34.89649 3.50787,-6.74987 3.39323,-17.52748 -0.26953,-25.4375 -3.67715,-7.94112 -6.70935,-11.29838 -20.79102,-23.02148 -6.62859,-5.51833 -12.6007,-11.06331 -13.27344,-12.32032 -1.57291,-2.93902 -0.71136,-8.08264 2.54493,-15.19531 2.94916,-6.44182 6.07757,-9.76195 11.25976,-11.94726 7.35757,-3.10266 9.68366,-1.62032 9.72266,6.19921 0.008,1.6998 1.31292,4.37015 3.12695,6.4004 2.78431,3.11619 3.71613,3.48437 8.84961,3.48437 5.32462,0 6.17996,-0.37526 11.83789,-5.20898 3.35379,-2.86522 6.40972,-6.4594 6.79297,-7.98633 0.38323,-1.52693 0.73696,-8.07336 0.78516,-14.546883 0.0786,-10.55375 -0.19013,-12.31796 -2.59571,-17.08008 -2.19775,-4.3507 -3.74083,-5.84247 -8.54101,-8.25195 -6.25338,-3.13892 -12.94603,-4.67203 -19.74219,-4.59961 z m 0.51172,6.47266 c 8.73456,0 10.9493,0.38188 15.52148,2.66797 7.69148,3.84574 9.577,8.14332 9.41602,21.45898 -0.13675,11.310743 -1.20029,14.445013 -5.24805,15.460943 -5.23149,1.31301 -7.14493,-0.67615 -8.92773,-9.27734 l -1.64063,-7.910163 -4.64453,-0.33399 c -15.57862,-1.11832 -33.40701,16.653173 -35.0664,34.953133 -0.59001,6.50669 -0.55304,6.62204 3.55664,10.90625 2.28467,2.38171 8.4739,7.93117 13.7539,12.33203 16.23735,13.53377 19.73438,18.87459 19.73438,30.15039 0,8.56601 -2.37761,13.0065 -11.38672,21.26172 -14.1695,12.98377 -24.13688,18.13257 -39.2793,20.29102 -16.70442,2.3811 -21.05853,0.38514 -18.65234,-8.55078 1.48943,-5.53135 4.65219,-7.733 16.83984,-11.72461 20.70313,-6.78052 28.7431,-11.86123 30.62305,-19.35157 0.91681,-3.65286 -3.40553,-8.53681 -14.9043,-16.83789 -16.75487,-12.09552 -22.04443,-20.68378 -22.7793,-36.98828 -0.35696,-7.92005 -0.0143,-11.03984 1.81836,-16.54687 4.87847,-14.65981 19.24779,-31.149363 33.13282,-38.025393 7.48271,-3.70552 8.53658,-3.93555 18.13281,-3.93555 z m -228.13477,11.40234 c 8.74077,0.13653 14.8787,4.26598 14.83985,12.76367 -0.0287,6.278073 -2.21573,7.690293 -15.49414,10.005863 -5.05119,0.88085 -10.98022,2.51858 -13.17578,3.63868 -8.55789,4.36591 -15.17145,15.34514 -13.45313,22.33398 1.21932,4.95934 5.59547,11.34167 14.33398,20.9082 10.80289,11.82652 12.88031,15.97999 12.84961,25.68555 -0.0454,14.34027 -5.56826,20.51433 -23.36718,26.125 -5.61538,1.7701 -13.08938,3.4266 -16.60938,3.68164 -7.08395,0.51328 -15.53423,-1.44142 -18.73047,-4.33398 -3.06004,-2.76929 -3.69186,-8.31755 -1.57617,-13.85743 2.01993,-5.28909 2.14487,-5.34532 14.43945,-6.39843 9.65223,-0.82679 20.62432,-4.51991 21.12305,-7.11133 0.63321,-3.29019 -3.09343,-9.22418 -12.70898,-20.23828 -10.97361,-12.56969 -13.9946,-18.90169 -14.1543,-29.67188 -0.1373,-9.25891 2.97014,-15.41241 12.65234,-25.0664 12.25294,-12.217233 27.79312,-18.640393 39.03125,-18.464853 z m -95.66406,8.02344 c 12.70437,0.11651 26.15432,12.202913 34.05469,32.105473 2.75357,6.93677 3.26752,9.69687 3.32812,17.87695 0.0663,8.96164 -0.16457,10.05143 -3.1289,14.79883 -3.75802,6.0185 -10.2727,11.02498 -16.10938,12.37891 -2.28633,0.53036 -10.27781,0.97623 -17.75781,0.99023 l -13.59961,0.0254 v 8.63867 c 0,9.92404 -1.68727,14.5401 -6.31445,17.27344 -3.70692,2.18973 -6.09126,2.23956 -9.83985,0.20313 -3.29536,-1.79022 -4.7958,-5.52831 -5.80664,-14.4629 -0.7739,-6.84049 -2.43871,-9.51953 -5.91797,-9.51953 -5.40346,0 -9.29775,-6.38626 -7.96289,-13.06054 0.98286,-4.91427 2.53463,-6.14063 7.77539,-6.14063 2.60673,0 5.6181,-0.46856 6.69141,-1.04297 2.11883,-1.13396 3.79402,-7.24992 4.82812,-17.62304 2.01139,-20.17622 8.37317,-33.16929 19.40235,-39.632823 3.30224,-1.93524 6.8002,-2.84121 10.35742,-2.80859 z m 230.49414,5.64258 c 14.22736,0 22.25843,20.486573 22.37109,57.066403 0.0543,17.62789 -0.0244,18.28347 -2.7832,23.50977 -5.3531,10.14108 -15.47251,17.03305 -21.97656,14.96875 -1.13702,-0.36088 -4.83612,-2.8054 -8.2207,-5.43359 -9.40537,-7.30341 -9.80181,-7.09729 -18.06055,9.41601 -4.13986,8.27761 -4.57013,8.75502 -8.1582,9.05664 -2.63041,0.22111 -4.33334,-0.28508 -5.57422,-1.65625 -1.64935,-1.8225 -1.66763,-2.99684 -0.22266,-15.25195 0.86102,-7.30249 1.57308,-18.79631 1.58008,-25.54297 0.0111,-10.30173 0.3489,-12.81776 2.10937,-15.70508 3.34342,-5.48349 8.26049,-5.80756 17.94141,-1.18164 3.45435,1.65062 5.89866,4.13968 9.9375,10.125 6.10292,9.04411 9.89181,11.62888 12.27539,8.36914 5.46909,-7.47943 4.37644,-21.26707 -3.3164,-41.80273 -4.28413,-11.4363 -5.88189,-21.76177 -3.76172,-24.31641 0.81716,-0.984613 3.12207,-1.621093 5.85937,-1.621093 z M 317.03488,102.3269 c -4.58374,5.8e-4 -5.99106,0.59675 -11.34375,4.79882 -10.71787,8.41399 -10.91837,9.17587 -11.11328,42.3379 -0.15645,26.61629 -0.32382,28.9107 -2.57422,35.20117 -2.88318,8.05924 -3.92309,23.92514 -2.18164,33.30469 1.76684,9.51623 4.1692,13.57638 9.71289,16.41796 5.46785,2.80272 10.38441,2.56813 16.89844,-0.80468 5.01406,-2.59617 14.62805,-12.45098 16.18554,-16.58985 0.73284,-1.94743 1.10097,-8.83619 0.93946,-17.59961 -0.14598,-7.92 0.29058,-17.76051 0.96875,-21.86718 0.67817,-4.10666 1.23814,-14.6668 1.24414,-23.4668 0.0294,-38.02193 -4.93608,-51.73442 -18.73633,-51.73242 z m 0.58008,5.42382 c 1.84836,0.0105 3.66338,0.74138 5.15039,2.32422 4.35527,4.63598 5.61298,9.89883 6.86523,28.72071 0.98252,14.76771 0.92829,20.74108 -0.28515,31.66601 -0.82257,7.40585 -1.36588,20.18511 -1.20703,28.39844 0.25876,13.38015 0.067,15.28796 -1.84375,18.34766 -1.17288,1.87818 -3.47401,4.09182 -5.11329,4.91796 -13.3072,6.70646 -19.99046,-0.97069 -19.79296,-22.73242 0.0707,-7.78296 0.72785,-12.11194 2.83789,-18.66601 2.63259,-8.17713 2.74971,-9.60337 2.78711,-34.13477 0.0215,-14.08 0.48343,-27.51856 1.02539,-29.86523 1.2789,-5.53763 5.50976,-8.99976 9.57617,-8.97657 z m 69.06054,3.25586 c 2.05597,-0.0258 3.45459,0.83022 5.67579,2.69922 4.68595,3.94297 8.12356,9.7187 13.44336,22.58985 5.20862,12.60213 7.47221,16.4748 9.27539,15.87695 0.69594,-0.23074 2.60659,-3.73981 4.24609,-7.79883 7.49475,-18.55534 8.74514,-21.12093 11.9707,-24.54101 2.93028,-3.10701 4.14549,-3.63868 8.29297,-3.63868 9.73332,0 14.60335,8.52914 13.06641,22.88086 -0.47833,4.4665 -0.0977,11.08656 1.11523,19.41407 2.15954,14.82666 2.51566,40.51693 0.65039,46.89843 -0.7064,2.41674 -2.28466,5.66573 -3.50781,7.22071 -1.22313,1.55498 -3.63721,3.55952 -5.36523,4.45312 -3.03513,1.56952 -3.25335,1.51229 -6.42579,-1.66015 l -3.28515,-3.28321 0.64844,-14.6289 c 0.35629,-8.04579 0.9434,-20.02891 1.30468,-26.62891 0.41961,-7.66533 0.27353,-12 -0.40234,-12 -1.17097,0 -5.11508,4.93657 -11.08008,13.86719 -11.33451,16.96968 -22.27091,14.89105 -28.58594,-5.43164 -2.78806,-8.97239 -8.18025,-21.63626 -9.38281,-22.03711 -3.76158,-1.25386 -7.31346,16.47349 -8.06836,40.26758 -0.43046,13.5683 -1.73233,18.98623 -5.45508,22.70898 -4.47121,4.47121 -14.41707,0.36565 -17.83593,-7.36328 -2.41683,-5.46361 -1.80031,-10.93614 3.41797,-30.37891 2.41881,-9.01221 3.51637,-16.11237 4.23242,-27.38672 1.35664,-21.36042 4.07434,-26.75398 15.37109,-30.50195 3.08864,-1.02473 5.08451,-1.5776 6.68359,-1.59766 z m 136.77344,3.15625 c -3.82806,0.16486 -7.28531,4.1873 -10.08789,11.93555 -3.30675,9.14215 -4.67965,21.84637 -2.52148,23.33008 0.83894,0.57669 6.05819,0.80991 11.88281,0.53125 10.84851,-0.51902 19.1174,-3.23129 20.45117,-6.70703 0.89322,-2.32766 -8.07733,-20.41338 -12.49609,-25.19336 -2.50244,-2.70702 -4.93168,-3.9954 -7.22852,-3.89649 z m -4.16992,13.76368 c 1.94333,0 10.33926,14.53963 9.10742,15.77148 -0.34662,0.34661 -3.49782,0.83623 -7.0039,1.08984 l -6.375,0.46094 0.62695,-5.19336 c 0.7943,-6.57432 2.46382,-12.1289 3.64453,-12.1289 z m 138.43555,2.31445 c 1.96973,-0.0663 3.93092,1.03641 7.05859,3.42383 2.59779,1.98293 8.14666,4.94971 12.33203,6.59179 11.66256,4.57565 13.71907,7.7927 19.70899,30.82813 0.90922,3.49659 1.65429,7.84827 1.65429,9.67187 0,10.33977 -8.10587,23.51577 -16.91211,27.49219 -4.0544,1.83074 -7.57424,2.30692 -19.35546,2.61914 -15.32413,0.4061 -17.68692,-0.19376 -22.61524,-5.75 -3.14188,-3.54218 -7.07658,-13.43573 -8.39844,-21.11914 -1.55386,-9.03181 -0.76894,-11.69142 6.7461,-22.84961 3.93622,-5.84443 5.47514,-9.26438 6.03906,-13.41992 0.93001,-6.85331 3.87674,-12.09735 8.57812,-15.26562 2.09488,-1.41174 3.63206,-2.17107 5.16407,-2.22266 z m 8.53125,28.61914 c -3.1732,0 -6.62065,0.62271 -7.66016,1.38281 -2.11186,1.54423 -5.88916,15.85629 -5.94726,22.53321 -0.0213,2.44001 0.69869,4.99487 1.72851,6.13281 3.67973,4.06605 19.55173,1.5185 19.57813,-3.14258 0.006,-1.01161 1.20507,-4.40666 2.66601,-7.54492 3.68046,-7.90602 3.47329,-11.29234 -0.96875,-15.73438 -3.23044,-3.23044 -4.25735,-3.62695 -9.39648,-3.62695 z m -4.98438,11.375 c 0.48876,0.002 1.13753,0.21525 2.06641,0.53906 1.67907,0.58532 3.32596,1.91998 3.6582,2.9668 0.77641,2.44624 -1.10226,7.38686 -3.97461,10.45312 -1.23651,1.32 -2.88438,2.39844 -3.66211,2.39844 -1.75602,0 -1.87137,-5.77203 -0.24414,-12.23437 0.78335,-3.1109 1.081,-4.12807 2.15625,-4.12305 z"
       style="fill:#000000;fill-opacity:1;stroke-width:1.0666666" />
  </g>
  <path
     style="fill:#000000;stroke-width:1.0666666"
     d=""
     id="path5142"
     inkscape:connector-curvature="0" />
  <path
     style="fill:#000000;stroke-width:1.0666666"
     d=""
     id="path4563"
     inkscape:connector-curvature="0" />
  <path
     style="fill:#000000;stroke-width:1.0666666"
     d=""
     id="path4547"
     inkscape:connector-curvature="0" />
  <path
     style="fill:#000000;stroke-width:1.0666666"
     d=""
     id="path4523"
     inkscape:connector-curvature="0" />
</svg>
